<svg width="32" height="32" viewBox="0 0 32 32" fill="none" xmlns="http://www.w3.org/2000/svg">
<rect width="32" height="32" rx="3" fill="black"/>
<g clip-path="url(#clip0_216_203)">
<path d="M16.5861 12.5974C16.5412 12.5316 16.4896 12.4703 16.4515 12.4022C15.866 11.3628 15.1167 10.48 14.078 9.87409C13.212 9.36801 12.2877 9.17511 11.3096 9.42928C10.4436 9.65622 10.2148 10.1555 10.2417 11.0043C10.2619 11.6533 10.6635 12.0709 11.1526 12.4158C11.8368 12.8992 12.622 13.1579 13.3982 13.4348C14.1744 13.7117 14.9529 13.9863 15.6528 14.4334C16.5614 15.0143 17.2524 15.7814 17.4633 16.8707C17.7213 18.2142 17.6562 19.5282 16.8015 20.6811C16.1621 21.5435 15.2759 22.0337 14.2664 22.3083C13.1694 22.6078 12.0522 22.6283 10.926 22.5216C9.62255 22.3991 8.41559 21.9974 7.3051 21.2938C7.13012 21.1826 7.0673 21.0646 7.06955 20.8558C7.08076 19.8391 7.07179 18.8247 7.06955 17.808C7.06955 17.7422 7.06955 17.6786 7.11666 17.5992C7.17723 17.6991 7.24004 17.7989 7.30062 17.8988C7.94896 18.9609 8.7521 19.8732 9.79305 20.5563C10.8519 21.253 11.9961 21.4618 13.2098 21.0805C13.9119 20.8604 14.1587 20.3815 14.2193 19.6689C14.2956 18.7839 13.8424 18.2074 13.1088 17.8579C12.4335 17.5379 11.7224 17.2928 11.0202 17.0319C10.2148 16.7323 9.40494 16.4486 8.69826 15.938C7.765 15.264 7.15704 14.3721 7.03589 13.2033C6.90129 11.9143 7.13909 10.7092 8.02748 9.71069C8.67134 8.98674 9.49467 8.56463 10.4145 8.31953C11.3702 8.06536 12.3393 8.06536 13.3152 8.15159C14.4549 8.25145 15.516 8.59867 16.4964 9.19099C16.5637 9.23184 16.6422 9.32489 16.6444 9.39524C16.6534 10.4324 16.6512 11.4672 16.6512 12.5044C16.6512 12.5248 16.6444 12.5429 16.6399 12.5634C16.6242 12.5747 16.6063 12.5838 16.5906 12.5951L16.5861 12.5974Z" fill="white"/>
<path d="M14.9013 28V27.0355C15.5093 26.9765 16.0925 26.8698 16.6354 26.5975C17.6584 26.0823 18.2193 25.2109 18.5132 24.1284C18.7712 23.1684 18.825 22.188 18.825 21.2008C18.825 17.0137 18.825 12.8266 18.825 8.63952C18.825 8.57144 18.825 8.50336 18.825 8.41939H22.9462C22.9484 8.48066 22.9551 8.54648 22.9551 8.61229C22.9551 12.7177 22.9619 16.8231 22.9506 20.9285C22.9484 22.1086 22.8116 23.2728 22.3045 24.3598C21.6024 25.8713 20.4178 26.8381 18.9058 27.4258C18.2036 27.6982 17.4745 27.8752 16.7207 27.9206C16.1195 27.9569 15.516 27.975 14.9013 28Z" fill="white"/>
<path d="M23 5.17638C23 6.35194 22.0196 7.35049 20.8508 7.33007C19.6775 7.30737 18.7308 6.41095 18.7173 5.13553C18.7039 3.94635 19.673 3 20.871 3C22.0353 3 23 3.9872 23 5.17638Z" fill="white"/>
</g>
<defs>
<clipPath id="clip0_216_203">
<rect width="16" height="25" fill="white" transform="translate(7 3)"/>
</clipPath>
</defs>
</svg>
