<svg width="41" height="64" viewBox="0 0 41 64" fill="none" xmlns="http://www.w3.org/2000/svg">
<g clip-path="url(#clip0_6_72)">
<path d="M24.5644 24.5694C24.4494 24.4009 24.3172 24.244 24.2194 24.0697C22.719 21.4089 20.7989 19.1489 18.1373 17.5977C15.9183 16.3021 13.5498 15.8083 11.0433 16.459C8.82431 17.0399 8.23794 18.3181 8.30693 20.4909C8.35867 22.1525 9.38769 23.2215 10.6409 24.1046C12.3943 25.3421 14.4063 26.0044 16.3954 26.7131C18.3845 27.4219 20.3793 28.1249 22.1729 29.2694C24.5011 30.7567 26.2717 32.7204 26.8121 35.5091C27.4732 38.9484 27.3065 42.3123 25.1162 45.2636C23.4778 47.4713 21.2071 48.7262 18.6202 49.4292C15.809 50.1961 12.9462 50.2484 10.0603 49.9753C6.72027 49.6616 3.62745 48.6333 0.781829 46.8322C0.333427 46.5476 0.172462 46.2455 0.178211 45.711C0.206955 43.1082 0.18396 40.5113 0.178211 37.9085C0.178211 37.74 0.178211 37.5773 0.298935 37.374C0.454151 37.6296 0.615115 37.8853 0.770331 38.1409C2.43172 40.8598 4.48976 43.1954 7.15718 44.9441C9.87058 46.7277 12.8024 47.2622 15.9125 46.2861C17.7119 45.7226 18.3442 44.4967 18.4994 42.6725C18.6949 40.4067 17.5337 38.931 15.6538 38.0363C13.9234 37.2171 12.1011 36.5897 10.3017 35.9216C8.23794 35.1547 6.16265 34.4285 4.3518 33.1213C1.96032 31.3958 0.402412 29.1126 0.0919801 26.1206C-0.252944 22.8206 0.356422 19.7357 2.63292 17.1794C4.28281 15.3261 6.3926 14.2455 8.74958 13.618C11.1985 12.9673 13.682 12.9673 16.1827 13.1881C19.1031 13.4437 21.8222 14.3326 24.3344 15.8489C24.5069 15.9535 24.7081 16.1917 24.7138 16.3718C24.7368 19.0269 24.7311 21.6761 24.7311 24.3312C24.7311 24.3834 24.7138 24.4299 24.7023 24.4822C24.6621 24.5113 24.6161 24.5345 24.5759 24.5635L24.5644 24.5694Z" fill="#252525"/>
<path d="M20.2471 64V61.5309C21.805 61.3798 23.2996 61.1068 24.6908 60.4096C27.3123 59.0908 28.7494 56.8598 29.5025 54.0886C30.1636 51.6311 30.3016 49.1213 30.3016 46.594C30.3016 35.8751 30.3016 25.1561 30.3016 14.4372C30.3016 14.2629 30.3016 14.0886 30.3016 13.8736H40.862C40.8678 14.0305 40.885 14.199 40.885 14.3675C40.885 24.8773 40.9023 35.3871 40.8735 45.8969C40.8678 48.9179 40.5171 51.8983 39.2179 54.6812C37.4185 58.5505 34.3832 61.0254 30.5086 62.5301C28.7092 63.2273 26.8409 63.6805 24.9093 63.7967C23.3686 63.8896 21.8222 63.9361 20.2471 64Z" fill="#252525"/>
<path d="M41 5.57153C41 8.58097 38.4878 11.1373 35.4927 11.085C32.4861 11.0269 30.0601 8.73203 30.0257 5.46696C29.9912 2.42266 32.4746 0 35.5444 0C38.528 0 41 2.52723 41 5.57153Z" fill="#252525"/>
</g>
<defs>
<clipPath id="clip0_6_72">
<rect width="41" height="64" fill="white"/>
</clipPath>
</defs>
</svg>
